<svg width="78" height="78" viewBox="0 0 78 78" fill="none" xmlns="http://www.w3.org/2000/svg">
<rect width="78" height="78" fill="black" fill-opacity="0"/>
<rect width="78" height="78" fill="black" fill-opacity="0"/>
<path d="M39 78C60.5391 78 78 60.5391 78 39C78 17.4609 60.5391 0 39 0C17.4609 0 0 17.4609 0 39C0 60.5391 17.4609 78 39 78Z" fill="#5F8A2E"/>
<path d="M48.5391 30.3984C48.5391 32.5391 47.8906 34.3594 46.5938 35.8594C45.2969 37.3594 43.4766 38.3906 41.1328 38.9531V39.0938C43.8984 39.4375 45.9922 40.2812 47.4141 41.625C48.8359 42.9531 49.5469 44.75 49.5469 47.0156C49.5469 50.3125 48.3516 52.8828 45.9609 54.7266C43.5703 56.5547 40.1562 57.4688 35.7188 57.4688C32 57.4688 28.7031 56.8516 25.8281 55.6172V49.4531C27.1562 50.125 28.6172 50.6719 30.2109 51.0938C31.8047 51.5156 33.3828 51.7266 34.9453 51.7266C37.3359 51.7266 39.1016 51.3203 40.2422 50.5078C41.3828 49.6953 41.9531 48.3906 41.9531 46.5938C41.9531 44.9844 41.2969 43.8438 39.9844 43.1719C38.6719 42.5 36.5781 42.1641 33.7031 42.1641H31.1016V36.6094H33.75C36.4062 36.6094 38.3438 36.2656 39.5625 35.5781C40.7969 34.875 41.4141 33.6797 41.4141 31.9922C41.4141 29.3984 39.7891 28.1016 36.5391 28.1016C35.4141 28.1016 34.2656 28.2891 33.0938 28.6641C31.9375 29.0391 30.6484 29.6875 29.2266 30.6094L25.875 25.6172C29 23.3672 32.7266 22.2422 37.0547 22.2422C40.6016 22.2422 43.3984 22.9609 45.4453 24.3984C47.5078 25.8359 48.5391 27.8359 48.5391 30.3984Z" fill="white"/>
</svg>
