<svg width="78" height="78" viewBox="0 0 78 78" fill="none" xmlns="http://www.w3.org/2000/svg">
<rect width="78" height="78" fill="black" fill-opacity="0"/>
<rect width="78" height="78" fill="black" fill-opacity="0"/>
<path d="M39 78C60.5391 78 78 60.5391 78 39C78 17.4609 60.5391 0 39 0C17.4609 0 0 17.4609 0 39C0 60.5391 17.4609 78 39 78Z" fill="#5F8A2E"/>
<path d="M49.875 57H25.9219V51.9609L34.5234 43.2656C37.0703 40.6562 38.7344 38.8516 39.5156 37.8516C40.2969 36.8359 40.8594 35.8984 41.2031 35.0391C41.5469 34.1797 41.7188 33.2891 41.7188 32.3672C41.7188 30.9922 41.3359 29.9688 40.5703 29.2969C39.8203 28.625 38.8125 28.2891 37.5469 28.2891C36.2188 28.2891 34.9297 28.5938 33.6797 29.2031C32.4297 29.8125 31.125 30.6797 29.7656 31.8047L25.8281 27.1406C27.5156 25.7031 28.9141 24.6875 30.0234 24.0938C31.1328 23.5 32.3438 23.0469 33.6562 22.7344C34.9688 22.4062 36.4375 22.2422 38.0625 22.2422C40.2031 22.2422 42.0938 22.6328 43.7344 23.4141C45.375 24.1953 46.6484 25.2891 47.5547 26.6953C48.4609 28.1016 48.9141 29.7109 48.9141 31.5234C48.9141 33.1016 48.6328 34.5859 48.0703 35.9766C47.5234 37.3516 46.6641 38.7656 45.4922 40.2188C44.3359 41.6719 42.2891 43.7422 39.3516 46.4297L34.9453 50.5781V50.9062H49.875V57Z" fill="white"/>
</svg>
