<svg width="50" height="50" viewBox="0 0 50 50" fill="none" xmlns="http://www.w3.org/2000/svg">
<rect width="25" height="25" fill="black" fill-opacity="0" transform="scale(2)"/>
<path d="M49 25C49 38.2548 38.2548 49 25 49C11.7452 49 1 38.2548 1 25C1 11.7452 11.7452 1 25 1C38.2548 1 49 11.7452 49 25Z" stroke="#BDBDBD" stroke-opacity="0.53"/>
<path d="M30.5431 13.8887H27.7129C26.0333 13.8887 24.1652 14.7751 24.1652 17.8301C24.1734 18.8946 24.1652 19.9141 24.1652 21.0614H22.2222V24.9413H24.2253V36.1109H27.9062V24.8676H30.3357L30.5555 21.0506H27.8428C27.8428 21.0506 27.8488 19.3526 27.8428 18.8595C27.8428 17.6522 28.8438 17.7213 28.9041 17.7213C29.3804 17.7213 30.3067 17.7231 30.5445 17.7213L30.5431 13.8887Z" fill="#BDBDBD" fill-opacity="0.69"/>
</svg>
