<svg width="50" height="50" viewBox="0 0 50 50" fill="none" xmlns="http://www.w3.org/2000/svg">
<rect width="25" height="25" fill="black" fill-opacity="0" transform="scale(2)"/>
<path d="M49 25.0225C49 38.1987 38.1987 49 25.0225 49C11.7996 49 1 38.1975 1 25.0225C1 11.8007 11.8007 1 25.0225 1C38.1975 1 49 11.7996 49 25.0225Z" stroke="#BDBDBD" stroke-opacity="0.53"/>
<path fill-rule="evenodd" clip-rule="evenodd" d="M20.5682 33.3335H17.2329V17.7846H20.5682V33.3335ZM31.2028 17.7846C34.1599 17.7846 36.1109 19.5153 36.1109 23.3561V33.3335H32.7757V24.4568C32.7757 22.3168 31.9898 21.1208 30.1644 21.1208C28.339 21.1208 26.1375 22.6633 26.1375 24.4568V33.3335H22.8017V17.7846H26.1376V20.019C27.2377 18.8858 28.8746 17.7846 31.2028 17.7846ZM18.9006 11.1113C20.1276 11.1113 21.1345 12.1187 21.1345 13.3463C21.1345 14.5738 20.1276 15.5498 18.9006 15.5498C17.6735 15.5498 16.6665 14.5738 16.6665 13.3463C16.6665 12.1187 17.6735 11.1113 18.9006 11.1113Z" fill="#BDBDBD" fill-opacity="0.83"/>
</svg>
