<svg width="50" height="50" viewBox="0 0 50 50" fill="none" xmlns="http://www.w3.org/2000/svg">
<rect width="25" height="25" fill="black" fill-opacity="0" transform="scale(2)"/>
<path d="M49 25C49 38.2548 38.2548 49 25 49C11.7452 49 1 38.2548 1 25C1 11.7452 11.7452 1 25 1C38.2548 1 49 11.7452 49 25Z" stroke="#BDBDBD" stroke-opacity="0.53"/>
<path d="M36.1113 18.9669C35.1918 19.3575 34.2041 19.6215 33.1657 19.7401C34.2255 19.1327 35.0374 18.1703 35.4208 17.0248C34.414 17.597 33.3122 17.9999 32.1632 18.2159C31.2282 17.262 29.8949 16.6665 28.4197 16.6665C25.5882 16.6665 23.2919 18.8633 23.2919 21.5747C23.2919 21.9589 23.3371 22.3337 23.4241 22.6935C19.1617 22.4885 15.3828 20.5345 12.8534 17.5654C12.4117 18.2905 12.1589 19.1336 12.1589 20.0332C12.1589 21.7358 13.0644 23.2381 14.4403 24.1181C13.6258 24.0939 12.8292 23.8835 12.117 23.5044V23.5664C12.117 25.9447 13.8845 27.9278 16.2308 28.3789C15.7998 28.4919 15.3475 28.5509 14.8796 28.5509C14.5487 28.5509 14.2277 28.521 13.9141 28.4645C14.5668 30.4139 16.4608 31.8328 18.7044 31.8729C16.9491 33.1897 14.7375 33.9747 12.3354 33.9747C11.9217 33.9747 11.5127 33.951 11.1113 33.9047C13.3813 35.2977 16.0765 36.1109 18.9729 36.1109C28.4057 36.1109 33.5646 28.6319 33.5646 22.146C33.5646 21.933 33.5597 21.7217 33.549 21.5111C34.5541 20.8153 35.4218 19.9538 36.1113 18.9669Z" fill="#BDBDBD" fill-opacity="0.69"/>
</svg>
