<svg width="243" height="52" viewBox="0 0 243 52" fill="none" xmlns="http://www.w3.org/2000/svg">
<path d="M17.3555 26H12.7383L5.28516 13.0391H5.17969C5.32812 15.3281 5.40234 16.9609 5.40234 17.9375V26H2.15625V8.86719H6.73828L14.1797 21.6992H14.2617C14.1445 19.4727 14.0859 17.8984 14.0859 16.9766V8.86719H17.3555V26ZM21.2461 9.51172C21.2461 8.34766 21.8945 7.76562 23.1914 7.76562C24.4883 7.76562 25.1367 8.34766 25.1367 9.51172C25.1367 10.0664 24.9727 10.5 24.6445 10.8125C24.3242 11.1172 23.8398 11.2695 23.1914 11.2695C21.8945 11.2695 21.2461 10.6836 21.2461 9.51172ZM24.9727 26H21.3984V12.8984H24.9727V26ZM40.1367 12.8984V14.7148L38.0859 15.2422C38.4609 15.8281 38.6484 16.4844 38.6484 17.2109C38.6484 18.6172 38.1562 19.7148 37.1719 20.5039C36.1953 21.2852 34.8359 21.6758 33.0938 21.6758L32.4492 21.6406L31.9219 21.582C31.5547 21.8633 31.3711 22.1758 31.3711 22.5195C31.3711 23.0352 32.0273 23.293 33.3398 23.293H35.5664C37.0039 23.293 38.0977 23.6016 38.8477 24.2188C39.6055 24.8359 39.9844 25.7422 39.9844 26.9375C39.9844 28.4688 39.3438 29.6562 38.0625 30.5C36.7891 31.3438 34.957 31.7656 32.5664 31.7656C30.7383 31.7656 29.3398 31.4453 28.3711 30.8047C27.4102 30.1719 26.9297 29.2812 26.9297 28.1328C26.9297 27.3438 27.1758 26.6836 27.668 26.1523C28.1602 25.6211 28.8828 25.2422 29.8359 25.0156C29.4688 24.8594 29.1484 24.6055 28.875 24.2539C28.6016 23.8945 28.4648 23.5156 28.4648 23.1172C28.4648 22.6172 28.6094 22.2031 28.8984 21.875C29.1875 21.5391 29.6055 21.2109 30.1523 20.8906C29.4648 20.5938 28.918 20.1172 28.5117 19.4609C28.1133 18.8047 27.9141 18.0312 27.9141 17.1406C27.9141 15.7109 28.3789 14.6055 29.3086 13.8242C30.2383 13.043 31.5664 12.6523 33.293 12.6523C33.6602 12.6523 34.0938 12.6875 34.5938 12.7578C35.1016 12.8203 35.4258 12.8672 35.5664 12.8984H40.1367ZM30.0234 27.8516C30.0234 28.3438 30.2578 28.7305 30.7266 29.0117C31.2031 29.293 31.8672 29.4336 32.7188 29.4336C34 29.4336 35.0039 29.2578 35.7305 28.9062C36.457 28.5547 36.8203 28.0742 36.8203 27.4648C36.8203 26.9727 36.6055 26.6328 36.1758 26.4453C35.7461 26.2578 35.082 26.1641 34.1836 26.1641H32.332C31.6758 26.1641 31.125 26.3164 30.6797 26.6211C30.2422 26.9336 30.0234 27.3438 30.0234 27.8516ZM31.3242 17.1875C31.3242 17.8984 31.4844 18.4609 31.8047 18.875C32.1328 19.2891 32.6289 19.4961 33.293 19.4961C33.9648 19.4961 34.457 19.2891 34.7695 18.875C35.082 18.4609 35.2383 17.8984 35.2383 17.1875C35.2383 15.6094 34.5898 14.8203 33.293 14.8203C31.9805 14.8203 31.3242 15.6094 31.3242 17.1875ZM49.6172 12.6523C50.1016 12.6523 50.5039 12.6875 50.8242 12.7578L50.5547 16.1094C50.2656 16.0312 49.9141 15.9922 49.5 15.9922C48.3594 15.9922 47.4688 16.2852 46.8281 16.8711C46.1953 17.457 45.8789 18.2773 45.8789 19.332V26H42.3047V12.8984H45.0117L45.5391 15.1016H45.7148C46.1211 14.3672 46.668 13.7773 47.3555 13.332C48.0508 12.8789 48.8047 12.6523 49.6172 12.6523ZM53.0508 9.51172C53.0508 8.34766 53.6992 7.76562 54.9961 7.76562C56.293 7.76562 56.9414 8.34766 56.9414 9.51172C56.9414 10.0664 56.7773 10.5 56.4492 10.8125C56.1289 11.1172 55.6445 11.2695 54.9961 11.2695C53.6992 11.2695 53.0508 10.6836 53.0508 9.51172ZM56.7773 26H53.2031V12.8984H56.7773V26ZM68.8594 26L68.168 24.2188H68.0742C67.4727 24.9766 66.8516 25.5039 66.2109 25.8008C65.5781 26.0898 64.75 26.2344 63.7266 26.2344C62.4688 26.2344 61.4766 25.875 60.75 25.1562C60.0312 24.4375 59.6719 23.4141 59.6719 22.0859C59.6719 20.6953 60.1562 19.6719 61.125 19.0156C62.1016 18.3516 63.5703 17.9844 65.5312 17.9141L67.8047 17.8438V17.2695C67.8047 15.9414 67.125 15.2773 65.7656 15.2773C64.7188 15.2773 63.4883 15.5938 62.0742 16.2266L60.8906 13.8125C62.3984 13.0234 64.0703 12.6289 65.9062 12.6289C67.6641 12.6289 69.0117 13.0117 69.9492 13.7773C70.8867 14.543 71.3555 15.707 71.3555 17.2695V26H68.8594ZM67.8047 19.9297L66.4219 19.9766C65.3828 20.0078 64.6094 20.1953 64.1016 20.5391C63.5938 20.8828 63.3398 21.4062 63.3398 22.1094C63.3398 23.1172 63.918 23.6211 65.0742 23.6211C65.9023 23.6211 66.5625 23.3828 67.0547 22.9062C67.5547 22.4297 67.8047 21.7969 67.8047 21.0078V19.9297ZM87.1406 26H83.5664V18.3477C83.5664 17.4023 83.3984 16.6953 83.0625 16.2266C82.7266 15.75 82.1914 15.5117 81.457 15.5117C80.457 15.5117 79.7344 15.8477 79.2891 16.5195C78.8438 17.1836 78.6211 18.2891 78.6211 19.8359V26H75.0469V12.8984H77.7773L78.2578 14.5742H78.457C78.8555 13.9414 79.4023 13.4648 80.0977 13.1445C80.8008 12.8164 81.5977 12.6523 82.4883 12.6523C84.0117 12.6523 85.168 13.0664 85.957 13.8945C86.7461 14.7148 87.1406 15.9023 87.1406 17.457V26ZM97.3359 26V8.86719H100.969V26H97.3359ZM116.73 26H113.156V18.3477C113.156 17.4023 112.996 16.6953 112.676 16.2266C112.363 15.75 111.867 15.5117 111.188 15.5117C110.273 15.5117 109.609 15.8477 109.195 16.5195C108.781 17.1914 108.574 18.2969 108.574 19.8359V26H105V12.8984H107.73L108.211 14.5742H108.41C108.762 13.9727 109.27 13.5039 109.934 13.168C110.598 12.8242 111.359 12.6523 112.219 12.6523C114.18 12.6523 115.508 13.293 116.203 14.5742H116.52C116.871 13.9648 117.387 13.4922 118.066 13.1562C118.754 12.8203 119.527 12.6523 120.387 12.6523C121.871 12.6523 122.992 13.0352 123.75 13.8008C124.516 14.5586 124.898 15.7773 124.898 17.457V26H121.312V18.3477C121.312 17.4023 121.152 16.6953 120.832 16.2266C120.52 15.75 120.023 15.5117 119.344 15.5117C118.469 15.5117 117.812 15.8242 117.375 16.4492C116.945 17.0742 116.73 18.0664 116.73 19.4258V26ZM140.309 26H136.734V18.3477C136.734 17.4023 136.574 16.6953 136.254 16.2266C135.941 15.75 135.445 15.5117 134.766 15.5117C133.852 15.5117 133.188 15.8477 132.773 16.5195C132.359 17.1914 132.152 18.2969 132.152 19.8359V26H128.578V12.8984H131.309L131.789 14.5742H131.988C132.34 13.9727 132.848 13.5039 133.512 13.168C134.176 12.8242 134.938 12.6523 135.797 12.6523C137.758 12.6523 139.086 13.293 139.781 14.5742H140.098C140.449 13.9648 140.965 13.4922 141.645 13.1562C142.332 12.8203 143.105 12.6523 143.965 12.6523C145.449 12.6523 146.57 13.0352 147.328 13.8008C148.094 14.5586 148.477 15.7773 148.477 17.457V26H144.891V18.3477C144.891 17.4023 144.73 16.6953 144.41 16.2266C144.098 15.75 143.602 15.5117 142.922 15.5117C142.047 15.5117 141.391 15.8242 140.953 16.4492C140.523 17.0742 140.309 18.0664 140.309 19.4258V26ZM152.004 9.51172C152.004 8.34766 152.652 7.76562 153.949 7.76562C155.246 7.76562 155.895 8.34766 155.895 9.51172C155.895 10.0664 155.73 10.5 155.402 10.8125C155.082 11.1172 154.598 11.2695 153.949 11.2695C152.652 11.2695 152.004 10.6836 152.004 9.51172ZM155.73 26H152.156V12.8984H155.73V26ZM170.895 12.8984V14.7148L168.844 15.2422C169.219 15.8281 169.406 16.4844 169.406 17.2109C169.406 18.6172 168.914 19.7148 167.93 20.5039C166.953 21.2852 165.594 21.6758 163.852 21.6758L163.207 21.6406L162.68 21.582C162.312 21.8633 162.129 22.1758 162.129 22.5195C162.129 23.0352 162.785 23.293 164.098 23.293H166.324C167.762 23.293 168.855 23.6016 169.605 24.2188C170.363 24.8359 170.742 25.7422 170.742 26.9375C170.742 28.4688 170.102 29.6562 168.82 30.5C167.547 31.3438 165.715 31.7656 163.324 31.7656C161.496 31.7656 160.098 31.4453 159.129 30.8047C158.168 30.1719 157.688 29.2812 157.688 28.1328C157.688 27.3438 157.934 26.6836 158.426 26.1523C158.918 25.6211 159.641 25.2422 160.594 25.0156C160.227 24.8594 159.906 24.6055 159.633 24.2539C159.359 23.8945 159.223 23.5156 159.223 23.1172C159.223 22.6172 159.367 22.2031 159.656 21.875C159.945 21.5391 160.363 21.2109 160.91 20.8906C160.223 20.5938 159.676 20.1172 159.27 19.4609C158.871 18.8047 158.672 18.0312 158.672 17.1406C158.672 15.7109 159.137 14.6055 160.066 13.8242C160.996 13.043 162.324 12.6523 164.051 12.6523C164.418 12.6523 164.852 12.6875 165.352 12.7578C165.859 12.8203 166.184 12.8672 166.324 12.8984H170.895ZM160.781 27.8516C160.781 28.3438 161.016 28.7305 161.484 29.0117C161.961 29.293 162.625 29.4336 163.477 29.4336C164.758 29.4336 165.762 29.2578 166.488 28.9062C167.215 28.5547 167.578 28.0742 167.578 27.4648C167.578 26.9727 167.363 26.6328 166.934 26.4453C166.504 26.2578 165.84 26.1641 164.941 26.1641H163.09C162.434 26.1641 161.883 26.3164 161.438 26.6211C161 26.9336 160.781 27.3438 160.781 27.8516ZM162.082 17.1875C162.082 17.8984 162.242 18.4609 162.562 18.875C162.891 19.2891 163.387 19.4961 164.051 19.4961C164.723 19.4961 165.215 19.2891 165.527 18.875C165.84 18.4609 165.996 17.8984 165.996 17.1875C165.996 15.6094 165.348 14.8203 164.051 14.8203C162.738 14.8203 162.082 15.6094 162.082 17.1875ZM180.375 12.6523C180.859 12.6523 181.262 12.6875 181.582 12.7578L181.312 16.1094C181.023 16.0312 180.672 15.9922 180.258 15.9922C179.117 15.9922 178.227 16.2852 177.586 16.8711C176.953 17.457 176.637 18.2773 176.637 19.332V26H173.062V12.8984H175.77L176.297 15.1016H176.473C176.879 14.3672 177.426 13.7773 178.113 13.332C178.809 12.8789 179.562 12.6523 180.375 12.6523ZM192.281 26L191.59 24.2188H191.496C190.895 24.9766 190.273 25.5039 189.633 25.8008C189 26.0898 188.172 26.2344 187.148 26.2344C185.891 26.2344 184.898 25.875 184.172 25.1562C183.453 24.4375 183.094 23.4141 183.094 22.0859C183.094 20.6953 183.578 19.6719 184.547 19.0156C185.523 18.3516 186.992 17.9844 188.953 17.9141L191.227 17.8438V17.2695C191.227 15.9414 190.547 15.2773 189.188 15.2773C188.141 15.2773 186.91 15.5938 185.496 16.2266L184.312 13.8125C185.82 13.0234 187.492 12.6289 189.328 12.6289C191.086 12.6289 192.434 13.0117 193.371 13.7773C194.309 14.543 194.777 15.707 194.777 17.2695V26H192.281ZM191.227 19.9297L189.844 19.9766C188.805 20.0078 188.031 20.1953 187.523 20.5391C187.016 20.8828 186.762 21.4062 186.762 22.1094C186.762 23.1172 187.34 23.6211 188.496 23.6211C189.324 23.6211 189.984 23.3828 190.477 22.9062C190.977 22.4297 191.227 21.7969 191.227 21.0078V19.9297ZM203.988 23.3867C204.613 23.3867 205.363 23.25 206.238 22.9766V25.6367C205.348 26.0352 204.254 26.2344 202.957 26.2344C201.527 26.2344 200.484 25.875 199.828 25.1562C199.18 24.4297 198.855 23.3438 198.855 21.8984V15.582H197.145V14.0703L199.113 12.875L200.145 10.1094H202.43V12.8984H206.098V15.582H202.43V21.8984C202.43 22.4062 202.57 22.7812 202.852 23.0234C203.141 23.2656 203.52 23.3867 203.988 23.3867ZM208.746 9.51172C208.746 8.34766 209.395 7.76562 210.691 7.76562C211.988 7.76562 212.637 8.34766 212.637 9.51172C212.637 10.0664 212.473 10.5 212.145 10.8125C211.824 11.1172 211.34 11.2695 210.691 11.2695C209.395 11.2695 208.746 10.6836 208.746 9.51172ZM212.473 26H208.898V12.8984H212.473V26ZM219.082 19.4258C219.082 20.7227 219.293 21.7031 219.715 22.3672C220.145 23.0312 220.84 23.3633 221.801 23.3633C222.754 23.3633 223.438 23.0352 223.852 22.3789C224.273 21.7148 224.484 20.7305 224.484 19.4258C224.484 18.1289 224.273 17.1562 223.852 16.5078C223.43 15.8594 222.738 15.5352 221.777 15.5352C220.824 15.5352 220.137 15.8594 219.715 16.5078C219.293 17.1484 219.082 18.1211 219.082 19.4258ZM228.141 19.4258C228.141 21.5586 227.578 23.2266 226.453 24.4297C225.328 25.6328 223.762 26.2344 221.754 26.2344C220.496 26.2344 219.387 25.9609 218.426 25.4141C217.465 24.8594 216.727 24.0664 216.211 23.0352C215.695 22.0039 215.438 20.8008 215.438 19.4258C215.438 17.2852 215.996 15.6211 217.113 14.4336C218.23 13.2461 219.801 12.6523 221.824 12.6523C223.082 12.6523 224.191 12.9258 225.152 13.4727C226.113 14.0195 226.852 14.8047 227.367 15.8281C227.883 16.8516 228.141 18.0508 228.141 19.4258ZM243.188 26H239.613V18.3477C239.613 17.4023 239.445 16.6953 239.109 16.2266C238.773 15.75 238.238 15.5117 237.504 15.5117C236.504 15.5117 235.781 15.8477 235.336 16.5195C234.891 17.1836 234.668 18.2891 234.668 19.8359V26H231.094V12.8984H233.824L234.305 14.5742H234.504C234.902 13.9414 235.449 13.4648 236.145 13.1445C236.848 12.8164 237.645 12.6523 238.535 12.6523C240.059 12.6523 241.215 13.0664 242.004 13.8945C242.793 14.7148 243.188 15.9023 243.188 17.457V26ZM12.2695 53.2422C12.2695 54.7891 11.7109 56.0078 10.5938 56.8984C9.48438 57.7891 7.9375 58.2344 5.95312 58.2344C4.125 58.2344 2.50781 57.8906 1.10156 57.2031V53.8281C2.25781 54.3438 3.23438 54.707 4.03125 54.918C4.83594 55.1289 5.57031 55.2344 6.23438 55.2344C7.03125 55.2344 7.64062 55.082 8.0625 54.7773C8.49219 54.4727 8.70703 54.0195 8.70703 53.418C8.70703 53.082 8.61328 52.7852 8.42578 52.5273C8.23828 52.2617 7.96094 52.0078 7.59375 51.7656C7.23438 51.5234 6.49609 51.1367 5.37891 50.6055C4.33203 50.1133 3.54688 49.6406 3.02344 49.1875C2.5 48.7344 2.08203 48.207 1.76953 47.6055C1.45703 47.0039 1.30078 46.3008 1.30078 45.4961C1.30078 43.9805 1.8125 42.7891 2.83594 41.9219C3.86719 41.0547 5.28906 40.6211 7.10156 40.6211C7.99219 40.6211 8.83984 40.7266 9.64453 40.9375C10.457 41.1484 11.3047 41.4453 12.1875 41.8281L11.0156 44.6523C10.1016 44.2773 9.34375 44.0156 8.74219 43.8672C8.14844 43.7188 7.5625 43.6445 6.98438 43.6445C6.29688 43.6445 5.76953 43.8047 5.40234 44.125C5.03516 44.4453 4.85156 44.8633 4.85156 45.3789C4.85156 45.6992 4.92578 45.9805 5.07422 46.2227C5.22266 46.457 5.45703 46.6875 5.77734 46.9141C6.10547 47.1328 6.875 47.5312 8.08594 48.1094C9.6875 48.875 10.7852 49.6445 11.3789 50.418C11.9727 51.1836 12.2695 52.125 12.2695 53.2422ZM20.5195 47.1953C19.7617 47.1953 19.168 47.4375 18.7383 47.9219C18.3086 48.3984 18.0625 49.0781 18 49.9609H23.0156C23 49.0781 22.7695 48.3984 22.3242 47.9219C21.8789 47.4375 21.2773 47.1953 20.5195 47.1953ZM21.0234 58.2344C18.9141 58.2344 17.2656 57.6523 16.0781 56.4883C14.8906 55.3242 14.2969 53.6758 14.2969 51.543C14.2969 49.3477 14.8438 47.6523 15.9375 46.457C17.0391 45.2539 18.5586 44.6523 20.4961 44.6523C22.3477 44.6523 23.7891 45.1797 24.8203 46.2344C25.8516 47.2891 26.3672 48.7461 26.3672 50.6055V52.3398H17.918C17.957 53.3555 18.2578 54.1484 18.8203 54.7188C19.3828 55.2891 20.1719 55.5742 21.1875 55.5742C21.9766 55.5742 22.7227 55.4922 23.4258 55.3281C24.1289 55.1641 24.8633 54.9023 25.6289 54.543V57.3086C25.0039 57.6211 24.3359 57.8516 23.625 58C22.9141 58.1562 22.0469 58.2344 21.0234 58.2344ZM36.5859 44.6523C37.0703 44.6523 37.4727 44.6875 37.793 44.7578L37.5234 48.1094C37.2344 48.0312 36.8828 47.9922 36.4688 47.9922C35.3281 47.9922 34.4375 48.2852 33.7969 48.8711C33.1641 49.457 32.8477 50.2773 32.8477 51.332V58H29.2734V44.8984H31.9805L32.5078 47.1016H32.6836C33.0898 46.3672 33.6367 45.7773 34.3242 45.332C35.0195 44.8789 35.7734 44.6523 36.5859 44.6523ZM43.2891 58L38.2969 44.8984H42.0352L44.5664 52.3633C44.8477 53.3086 45.0234 54.2031 45.0938 55.0469H45.1641C45.2031 54.2969 45.3789 53.4023 45.6914 52.3633L48.2109 44.8984H51.9492L46.957 58H43.2891ZM53.6836 41.5117C53.6836 40.3477 54.332 39.7656 55.6289 39.7656C56.9258 39.7656 57.5742 40.3477 57.5742 41.5117C57.5742 42.0664 57.4102 42.5 57.082 42.8125C56.7617 43.1172 56.2773 43.2695 55.6289 43.2695C54.332 43.2695 53.6836 42.6836 53.6836 41.5117ZM57.4102 58H53.8359V44.8984H57.4102V58ZM66.4922 58.2344C62.4141 58.2344 60.375 55.9961 60.375 51.5195C60.375 49.293 60.9297 47.5938 62.0391 46.4219C63.1484 45.2422 64.7383 44.6523 66.8086 44.6523C68.3242 44.6523 69.6836 44.9492 70.8867 45.543L69.832 48.3086C69.2695 48.082 68.7461 47.8984 68.2617 47.7578C67.7773 47.6094 67.293 47.5352 66.8086 47.5352C64.9492 47.5352 64.0195 48.8555 64.0195 51.4961C64.0195 54.0586 64.9492 55.3398 66.8086 55.3398C67.4961 55.3398 68.1328 55.25 68.7188 55.0703C69.3047 54.8828 69.8906 54.5938 70.4766 54.2031V57.2617C69.8984 57.6289 69.3125 57.8828 68.7188 58.0234C68.1328 58.1641 67.3906 58.2344 66.4922 58.2344ZM78.9492 47.1953C78.1914 47.1953 77.5977 47.4375 77.168 47.9219C76.7383 48.3984 76.4922 49.0781 76.4297 49.9609H81.4453C81.4297 49.0781 81.1992 48.3984 80.7539 47.9219C80.3086 47.4375 79.707 47.1953 78.9492 47.1953ZM79.4531 58.2344C77.3438 58.2344 75.6953 57.6523 74.5078 56.4883C73.3203 55.3242 72.7266 53.6758 72.7266 51.543C72.7266 49.3477 73.2734 47.6523 74.3672 46.457C75.4688 45.2539 76.9883 44.6523 78.9258 44.6523C80.7773 44.6523 82.2188 45.1797 83.25 46.2344C84.2812 47.2891 84.7969 48.7461 84.7969 50.6055V52.3398H76.3477C76.3867 53.3555 76.6875 54.1484 77.25 54.7188C77.8125 55.2891 78.6016 55.5742 79.6172 55.5742C80.4062 55.5742 81.1523 55.4922 81.8555 55.3281C82.5586 55.1641 83.293 54.9023 84.0586 54.543V57.3086C83.4336 57.6211 82.7656 57.8516 82.0547 58C81.3438 58.1562 80.4766 58.2344 79.4531 58.2344Z" transform="translate(-1 -7)" fill="white"/>
</svg>
